<svg id="Layer_1" data-name="Layer 1" xmlns="http://www.w3.org/2000/svg" viewBox="0 0 512 512"><defs><style>.cls-1{fill:#3a83f9;}.cls-2{fill:#363eb2;}</style></defs><path class="cls-1" d="M217.19,503.45c13-31.84,27.58-66.61,37.84-89.77,0,0,25-56.27,51.3-110,5.83-11.88,10.32-20.86,13.1-26.42,9.06-18.11,44.2-88,86.53-154.78,6.91-10.9,15.64-24.28,27.92-40.48a546.73,546.73,0,0,1,56.44-63.57,8.43,8.43,0,0,0,0-11A8.47,8.47,0,0,0,478.47,7c-11.94,13.25-30.15,33.08-53.05,56.52-35.18,36-52.14,50.52-72.5,70.39,0,0-180.3,164.33-198.53,180.77a4.23,4.23,0,0,1-6.77-4.73q18.27-56,35.48-115.74,9.77-34,18.54-67.24c1.43-7-2.31-13.73-8.11-15.77a13.16,13.16,0,0,0-13,3A1059.89,1059.89,0,0,0,33.73,328.12,11,11,0,0,0,52.37,339.6c65.22-68.83,145.31-152.87,210.52-221.7l10.79-11.19c5-4.21,5-11,2-13.89s-10.1-2.61-14,2.88C199.46,161.93,122.37,243.35,60.14,309.58c17.75-29.79,38-61.22,61.13-93.66,21-29.42,41.9-56.33,62.26-80.8l-51,180.33c-1.52,6.59.22,13.38,4.78,17.37,6.44,5.64,17.87,5.11,25.38-2.69Q219,277.35,276.09,224.37q57.68-53.52,115.11-106.25c-28,46.25-49.71,85.86-65.14,115.21-28.62,54.47-49.2,99.32-69.4,143.35-14.7,32-26.48,58.78-34.57,77.4-5.54,12.44-13.61,31.79-19.15,44.22a7.59,7.59,0,1,0,14.25,5.15Z"/><path class="cls-2" d="M57.86,108.49c.37,45.48,2.22,283.24-.65,294.29a29.71,29.71,0,0,1-2,5.55c-3.37,6.59-7.35,6.87-10.12,11.91-2.56,4.66-3,11.44.09,15.72a11,11,0,0,0,9,4.83H85a11.14,11.14,0,0,0,7.83-2.43c3.81-3.23,3.68-8.11,3.66-9.1-.16-6.13-4.94-10.49-7.39-12.72-5.12-4.68-8.34-4.27-10.85-8.45a14.8,14.8,0,0,1-1.81-8.9l.11-277.31a429.09,429.09,0,0,1,25.94,50.68c6.33,14.72,8.48,22.08,22.93,59.72,7,18.14,8.56,21.92,12.67,32.58,12.7,33,34,92.23,63.34,144.18,4.13,7.33,9.73,16,18.1,16.89,13.52,1.36,26.3-18.95,40-44.63C284.91,333.52,301,290.63,317,244.42c9.36-26.92,18.94-55.6,29.42-87,6.27-18.77,11.39-34.25,14.8-44.6q-1.71,67.86-2.48,137.46-.75,68.85-.5,136c0,4.36-.26,9.22-2.89,14.46-2.11,4.18-4,5.08-6.6,10.58-1.52,3.22-3.06,6.49-3.21,10.94a20,20,0,0,0,3.59,12.63c6.12,8.17,17.3,7.35,18.13,7.28l91.09.6c4.36,0,10.07-2.1,12.67-6.64,3.52-6.13-.85-14.91-1.79-16.83-3.91-7.92-8.76-8.53-11.53-16a24.3,24.3,0,0,1-1.2-11.46c0-35.33,0-64.1,0-83.5.23-121.34,1-118.38.35-133.46-.81-19.14.72-38.32,0-57.47a29.36,29.36,0,0,1,.27-5.57,27.34,27.34,0,0,1,1.13-4.58c1.91-5.63,6.83-14.71,9-19,4.24-8.37,6.36-12.55,5.81-17.2a19.51,19.51,0,0,0-5.69-11.11c-8.36-8.33-20.27-2.06-54,.64,0,0-38.89,3.11-53.1,11.06a27.43,27.43,0,0,0-3.9,2.71h0c-5.06,4.58-8.2,9.42-14.48,29.29-4,12.73-5.21,18.68-8.45,30.17-4.12,14.65-7.23,22.87-13.87,41.62-18.34,51.79-16.39,50.53-25.34,73.6-5.44,14-13.67,33.85-25.34,57.31-16.24-48.88-28.3-86.34-35.59-109.19A614.84,614.84,0,0,0,189.93,99c-6.22-11.28-19-33.34-42.23-39.82-1.59-.44-3-1.5-12.07-1.81-7.7-.26-61.33-3.72-88.07,2.42-2.67.61-7.68,1.91-10.69,6.21-3.4,4.84-2.38,10.82-2.18,12,.93,5.46,4.44,9.34,6,11C44.31,93.17,50.13,100,57.86,108.49Z"/></svg>