<svg id="Layer_1" data-name="Layer 1" xmlns="http://www.w3.org/2000/svg" viewBox="0 0 1152.98 297.02"><defs><style>.cls-1{fill:#f1f0f0;}</style></defs><path class="cls-1" d="M1109,116.84s-.15-.47-.17-.52,0,0,0-.06l0,0a3.73,3.73,0,0,0-.43-.75l-.2-.21a4.91,4.91,0,0,0-4.58-1,4.41,4.41,0,0,0-2,1.42c-5.47,5.65-19.57,20.15-32.78,32.83-4.73,4.53-13.63,13-23.11,21.76l-2.34,2.18s-23.66,22-31.52,21.93h-.63a6.29,6.29,0,0,1-3.68-1.34,6.62,6.62,0,0,1-2-3.35c-.23-.76-.74-2.79.34-8.37.15-.79.57-2.44,1.34-5.45,4.69-2.05,8.66-4,11.88-5.77,6.52-3.49,28.8-16,46.42-39.26,3.1-4.09,8.2-11.35,9.61-21.47.51-3.61,1.39-11.07-2.88-16.76a14.93,14.93,0,0,0-5.5-4.51,15.6,15.6,0,0,0-7.94-1.24A24.8,24.8,0,0,0,1046,91.76c-9.22,6.46-15,15-17.66,19a231.11,231.11,0,0,0-21.6,40.85,190.91,190.91,0,0,0-5.94,18.38c-3.4,1.39-7.08,2.77-11,4.05a4.57,4.57,0,0,0-.87.26,4,4,0,0,0-2.17,2.42h0a4,4,0,0,0-.16.66l0,.34c0,.12,0,.24,0,.36a3.73,3.73,0,0,0,.07.56.76.76,0,0,0,0,.16c0,.09,0,.17,0,.25s.11.28.17.42l0,0v0a3.56,3.56,0,0,0,.34.6l.07.11a4.71,4.71,0,0,0,.35.41l.21.21.28.21.38.26.17.09a5.38,5.38,0,0,0,.55.24l.09,0a3.92,3.92,0,0,0,.66.15H990a5.46,5.46,0,0,0,.7,0h.09a4,4,0,0,0,.68-.12h0q3.66-1.18,7-2.43c-1,4.8-1.54,9.44-.46,14.12a10.35,10.35,0,0,0,2.37,5.05,9.69,9.69,0,0,0,3.2,2.25,13.69,13.69,0,0,0,7.1,1.08c8.16-.75,18.87-8.94,22.18-11.5,9.23-7.15,12.89-10.52,12.89-10.52,23.62-21.61,29.21-27.06,29.21-27.06q8.82-8.69,17.81-17.39,7.37-7.14,14.69-14.18a4.23,4.23,0,0,0,1.45-2A4.09,4.09,0,0,0,1109,116.84Zm-97.57,44.35c.93-2.7,1.93-5.24,3.47-8.71A336.74,336.74,0,0,1,1033,118a100.9,100.9,0,0,1,6.91-10.13,48.58,48.58,0,0,1,12-11.36c3.39-2.19,5.8-3.06,8.41-2.8a8.26,8.26,0,0,1,4.93,2.08c2.34,2.26,2.32,5.58,2.25,8.92a30.92,30.92,0,0,1-3.15,12.8,108.94,108.94,0,0,1-7.21,11c-13.83,18.54-30.28,28.08-39.51,33.31-2.25,1.27-4.83,2.65-7.7,4.06C1010.33,164.47,1010.83,162.85,1011.4,161.19Z"/><path class="cls-1" d="M517.4,125.46c-1.82-1.43-4.43.09-4.63.22a4.79,4.79,0,0,0-1.3,1.15l-.05.07c-1.65,2.24-52.65,60-55.78,63.69h0c-1.79,2-2.7,3-3.64,3.46a4.41,4.41,0,0,1-2.17.6,4.19,4.19,0,0,1-2.84-1.2,4.25,4.25,0,0,1-1-2.17c-.42-2.21.5-8.07,2.57-15.66h0c.5-1.68,1-3.37,1.55-5.05a412.75,412.75,0,0,1,21.74-55.13q10.11-15.84,20.23-32,11.54-18.47,22.66-36.72a5.5,5.5,0,0,0,.72-3,4.16,4.16,0,0,0-.29-1,3.9,3.9,0,0,0-2.29-2.13h0a3.87,3.87,0,0,0-2.91.1,4.07,4.07,0,0,0-1.48,1.15,5.65,5.65,0,0,0-.87,1.24l-19,29.24c-1.46,2.26-25.83,39.86-27.31,42.13a38.51,38.51,0,0,0,.65-4.72c.42-5.61.87-11.75-2.88-16.75a15,15,0,0,0-5.5-4.5,15.56,15.56,0,0,0-7.93-1.24c-5.82.33-10,3-12.83,4.93a42.39,42.39,0,0,0-7.27,6.36,75.87,75.87,0,0,0-9.92,13c-6.18,10.12-14.69,24-21.63,40.81a165.09,165.09,0,0,0-6,16.91c-.73,2.48-1.27,4.56-1.63,6a77.47,77.47,0,0,0-1.46,8.13c-.79,6.23-.35,8.89,0,10.41a10.43,10.43,0,0,0,2.37,5,8.81,8.81,0,0,0,3.2,2.25c.74.29,3.08,1.11,7,0,3.6-1,6.1-2.89,9.34-5.71a128.42,128.42,0,0,0,9.84-9.49c8.62-9.52,11.86-13.53,11.86-13.53,5.78-7.14,13.35-16.28,24-28.92-4.85,11-8.16,20.09-10.35,26.58a74.25,74.25,0,0,0-2.91,12.49c-.28,1.91-1.55,9.45.74,14.71a8.7,8.7,0,0,0,1.79,2.71,9.16,9.16,0,0,0,5.37,2.54,10.19,10.19,0,0,0,4.79-.55,13,13,0,0,0,5-3.15c6.92-6.82,59.87-67,60.41-67.49l0,0a3.81,3.81,0,0,0,.72-1C518.78,128.85,518.85,126.61,517.4,125.46Zm-66.25-7.58c-1,1.67-2.66,4-7.75,11.08a5.62,5.62,0,0,0-1.22,3.81,3.94,3.94,0,0,0,4.84,3.38c-1,1.47-1.73,2.55-2.18,3.17,0,0-13.26,18.22-28.8,36.18-.19.22-1.72,1.83-3.73,4.08-1.68,1.87-2.19,2.51-3.74,4.29h0c-4.47,4.95-6.62,7.45-9.47,9.34a6.09,6.09,0,0,1-3.26,1.12A4.33,4.33,0,0,1,394,194a5,5,0,0,1-2-1.7c-1.67-2.44-.32-8.91.14-11,.8-3.73,1.46-6.78,2.76-11,.21-.67,1.32-4.24,3-8.61,1.11-2.83,2.33-5.71,3.74-8.88,0,0,8.9-19.95,18.1-34.44,1.24-2,2.49-3.82,2.49-3.82,1.68-2.51,3.19-4.63,4.41-6.31a47.08,47.08,0,0,1,12-11.35c3.39-2.19,5.8-3.06,8.41-2.79a8.21,8.21,0,0,1,4.92,2.07c2.36,2.27,2.33,5.61,2.25,8.92A24.75,24.75,0,0,1,451.15,117.88Z"/><path class="cls-1" d="M112.75,290.93c6.92-18.38,14.65-38.48,20.13-51.87,0,0,13.33-32.54,27.49-63.64,3.13-6.88,5.55-12.07,7-15.3,4.87-10.49,23.79-51,46.87-89.79,3.77-6.34,8.53-14.12,15.28-23.57A313,313,0,0,1,260.75,9.55a4.82,4.82,0,0,0-.19-6.27,4.83,4.83,0,0,0-6.76-.06C247.2,11,237.13,22.6,224.43,36.36c-19.49,21.12-28.94,29.7-40.24,41.37,0,0-100.25,96.78-110.39,106.47a2.45,2.45,0,0,1-3.08.24,2.42,2.42,0,0,1-.86-2.83q9.51-32.28,18.36-66.67,5-19.59,9.49-38.69a7.81,7.81,0,0,0-4.89-8.87,7.52,7.52,0,0,0-7.37,1.94A605.3,605.3,0,0,0,5.13,193.84a6.41,6.41,0,0,0,2.26,7.75,6.44,6.44,0,0,0,8.57-1.5c36.11-40.37,80.46-89.67,116.57-130l6-6.56c2.8-2.48,2.68-6.38.94-8s-5.81-1.32-8,1.88C97,96.23,54.35,144,19.91,182.82c9.64-17.3,20.69-35.58,33.36-54.48,11.49-17.14,23-32.85,34.23-47.15L61.34,185c-.76,3.79.34,7.64,3,9.84,3.77,3.12,10.29,2.63,14.45-1.95q31.28-31.06,63-62.24,32.06-31.5,64-62.55c-15.25,26.87-27,49.84-35.31,66.85-15.45,31.56-26.46,57.51-37.28,83-7.86,18.52-14.15,34-18.46,44.76-3,7.19-7.25,18.37-10.21,25.56a4.34,4.34,0,1,0,8.22,2.7Z"/><path class="cls-1" d="M683.08,291.39c6.92-18.39,14.65-38.48,20.13-51.87,0,0,13.33-32.54,27.49-63.64,3.13-6.88,5.55-12.08,7-15.3,4.87-10.49,23.79-51,46.87-89.79,3.77-6.34,8.53-14.12,15.27-23.57A313.33,313.33,0,0,1,831.08,10a4.81,4.81,0,0,0-.19-6.26,4.83,4.83,0,0,0-6.76-.06c-6.6,7.75-16.68,19.37-29.37,33.13-19.5,21.13-28.94,29.7-40.24,41.38,0,0-100.25,96.78-110.39,106.46a2.41,2.41,0,0,1-3.94-2.59q9.51-32.28,18.36-66.66,5-19.59,9.49-38.69c.69-4-1.55-7.81-4.9-8.87a7.48,7.48,0,0,0-7.36,1.94,604.89,604.89,0,0,0-80.32,124.51,6.29,6.29,0,0,0,10.83,6.25c36.11-40.37,80.46-89.66,116.57-130l6-6.56c2.8-2.49,2.68-6.39.94-8s-5.81-1.32-8,1.88c-34.44,38.83-77.12,86.58-111.57,125.42,9.65-17.3,20.7-35.58,33.37-54.48,11.49-17.14,23-32.85,34.22-47.16l-26.16,103.8c-.75,3.79.35,7.63,3,9.84,3.77,3.11,10.29,2.63,14.45-1.95q31.27-31.07,63-62.25,32.05-31.5,64-62.55c-15.25,26.87-27,49.84-35.31,66.86-15.45,31.56-26.46,57.51-37.28,83-7.86,18.52-14.15,34-18.47,44.76-2.95,7.19-7.24,18.37-10.2,25.55a4.34,4.34,0,1,0,8.22,2.71Z"/><path class="cls-1" d="M315,127c-.06-.13-.14-.24-.21-.36l0-.07a1.53,1.53,0,0,0-.17-.27,2.68,2.68,0,0,0-1.36-1.13,3.69,3.69,0,0,0-3.1-.07,3.62,3.62,0,0,0-1.57,1.31,4.85,4.85,0,0,0-.51.55s-.05.06-.05.07c-1.66,2.24-52.65,60-55.78,63.69h0c-1.79,2-2.7,3-3.65,3.46a4.34,4.34,0,0,1-2.17.6,3.83,3.83,0,0,1-3.85-3.37c-.42-2.21.49-8.07,2.57-15.66h0c.95-3.16,1.43-4.74,1.54-5.05,4.48-12.7,17.95-45.6,23.23-58.81a6.59,6.59,0,0,0,.22-.72,4,4,0,0,0-5.22-5.21,4.53,4.53,0,0,0-.85.51,3.09,3.09,0,0,0-.6.68q-1.65,2.77-3.52,5.67-1.25,1.92-2.51,3.74a36.48,36.48,0,0,0,1.13-6.75c.42-5.61.87-11.75-2.89-16.75a14.89,14.89,0,0,0-5.49-4.5,15.58,15.58,0,0,0-7.94-1.24,24.76,24.76,0,0,0-12.82,4.93c-6.72,4.7-11.9,10.67-17.66,18.87,0,0-13.24,18.85-21.21,40-1.38,3.64-2.7,7.56-2.7,7.56-2.23,6.65-3.81,12.37-4.89,16.69a69,69,0,0,0-1.46,8.13c-.79,6.23-.35,8.89,0,10.41a10.43,10.43,0,0,0,2.37,5,8.72,8.72,0,0,0,3.2,2.25c.73.29,3.08,1.11,7,0,3.6-1,6.09-2.89,9.34-5.71a128.42,128.42,0,0,0,9.84-9.49c8.62-9.52,11.86-13.53,11.86-13.53,5.78-7.14,13.35-16.28,24-28.92-4.85,11-8.16,20.09-10.36,26.58a75.88,75.88,0,0,0-2.9,12.49c-.28,1.91-1.55,9.45.74,14.71a8.53,8.53,0,0,0,1.79,2.71,9.23,9.23,0,0,0,5.36,2.54,10.24,10.24,0,0,0,4.8-.55,13,13,0,0,0,5-3.15c6.92-6.82,59.87-67,60.4-67.49l0,0a3.1,3.1,0,0,0,.24-.28A3.71,3.71,0,0,0,315,127Zm-67.28-9c-1.9,3.14-7.07,9.81-8.33,12.16a5.08,5.08,0,0,0-.57,2.58,4.37,4.37,0,0,0,.3,1.11,3.94,3.94,0,0,0,2,2l.09.06.08,0h0a3.31,3.31,0,0,0,2.25.18h0l.23-.05-2.42,3.35s-13.26,18.22-28.8,36.18c-.19.22-1.72,1.83-3.74,4.08-1.67,1.87-2.18,2.51-3.74,4.29h0c-4.47,4.95-6.63,7.45-9.48,9.34a6,6,0,0,1-3.25,1.12,4.29,4.29,0,0,1-1.79-.34,5.09,5.09,0,0,1-2-1.7c-1.67-2.44-.31-8.91.14-11,.81-3.72,1.47-6.77,2.77-11,.21-.67,1.32-4.24,3-8.61,1.1-2.83,2.33-5.71,3.74-8.88,0,0,8.9-19.95,18.1-34.44,1.24-2,2.48-3.82,2.48-3.82,1.68-2.51,3.19-4.64,4.42-6.31a47.08,47.08,0,0,1,12-11.35c3.38-2.19,5.8-3.06,8.4-2.79a8.21,8.21,0,0,1,4.93,2.07c2.38,2.29,2.34,5.68,2.25,8.92S250.63,113.11,247.69,118Z"/><path class="cls-1" d="M415.1,125.47c-1.81-1.43-4.42.09-4.62.21a4.94,4.94,0,0,0-1.3,1.16s0,.06-.05.06c-1.65,2.25-52.65,60-55.78,63.7h0c-1.79,2-2.7,3-3.65,3.46a4.33,4.33,0,0,1-2.16.6,3.86,3.86,0,0,1-3.86-3.37c-.42-2.21.5-8.08,2.57-15.66h0q.75-2.52,1.55-5.06a411.8,411.8,0,0,1,21.74-55.12q10.11-15.84,20.23-32Q401.3,64.94,412.43,46.7a5.52,5.52,0,0,0,.72-3,4.16,4.16,0,0,0-.29-1,3.94,3.94,0,0,0-2.29-2.14h0a3.91,3.91,0,0,0-2.91.09,4.19,4.19,0,0,0-1.48,1.16,6,6,0,0,0-.88,1.24L386.33,72.28,359,114.41a38.79,38.79,0,0,0,.65-4.72c.42-5.61.87-11.75-2.88-16.75a15,15,0,0,0-5.5-4.5,15.56,15.56,0,0,0-7.93-1.24c-5.82.33-10,3-12.83,4.93a41.9,41.9,0,0,0-7.27,6.36,75.48,75.48,0,0,0-9.92,13c-6.18,10.12-14.69,24.05-21.63,40.81a165.09,165.09,0,0,0-6,16.91c-.73,2.48-1.27,4.56-1.63,6a77.47,77.47,0,0,0-1.46,8.13c-.79,6.23-.35,8.89,0,10.4a10.38,10.38,0,0,0,2.37,5,8.81,8.81,0,0,0,3.2,2.26c.74.29,3.08,1.11,7,0,3.6-1,6.1-2.89,9.34-5.72a126.17,126.17,0,0,0,9.84-9.49c8.62-9.51,11.86-13.52,11.86-13.52,5.78-7.14,13.35-16.28,24-28.92-4.85,11-8.16,20.09-10.35,26.58A74.25,74.25,0,0,0,337,182.51c-.28,1.91-1.55,9.45.74,14.71a8.7,8.7,0,0,0,1.79,2.71,9.29,9.29,0,0,0,5.37,2.54,10.19,10.19,0,0,0,4.79-.55,13.13,13.13,0,0,0,5-3.15c6.92-6.82,59.87-67,60.4-67.5l0,0a3.81,3.81,0,0,0,.72-1C416.49,128.85,416.56,126.61,415.1,125.47Zm-66.24-7.58c-1,1.67-2.66,4-7.75,11.08a5.62,5.62,0,0,0-1.22,3.81,3.94,3.94,0,0,0,4.84,3.38c-1,1.46-1.73,2.55-2.18,3.17,0,0-13.26,18.21-28.8,36.18-.19.22-1.72,1.83-3.73,4.08-1.68,1.87-2.19,2.51-3.74,4.28h0c-4.47,5-6.62,7.45-9.47,9.34a6,6,0,0,1-3.26,1.11,4.59,4.59,0,0,1-1.79-.33,5,5,0,0,1-2-1.7c-1.68-2.44-.32-8.92.14-11,.8-3.73,1.46-6.77,2.76-11,.21-.67,1.32-4.24,3-8.61,1.1-2.84,2.33-5.72,3.74-8.89,0,0,8.9-19.94,18.1-34.43,1.24-2,2.49-3.82,2.49-3.82,1.67-2.51,3.19-4.64,4.41-6.31a47.08,47.08,0,0,1,12-11.35c3.39-2.19,5.8-3.06,8.41-2.8a8.31,8.31,0,0,1,4.92,2.08c2.35,2.27,2.33,5.61,2.25,8.92A24.75,24.75,0,0,1,348.86,117.89Z"/><path class="cls-1" d="M579.7,96a4.29,4.29,0,0,0-5.22-2,3.9,3.9,0,0,0-1.9,1.79,1.64,1.64,0,0,0-.14.22c-4.49,7.55-9.76,15.51-17.86,28.74-7.26,11.85-5.26,8.38-14.16,22.79,0,0-16.14,26.12-35.54,44.08-1.08,1-4.1,3.66-7.31,3.21a4.64,4.64,0,0,1-2.59-1.16c-.32-.31-1.39-1.14-1.42-3.83a41.17,41.17,0,0,1,.44-6.51c.23-1.2.59-2.93,1.07-5,2.47-10.53,5.85-19.24,13.21-34.81,3.58-7.59,8.09-16.76,13.56-27.11a4.22,4.22,0,0,0,.35-2.51,3.55,3.55,0,0,0-.28-.89,3.9,3.9,0,0,0-1.24-1.51l-.15-.11a2.68,2.68,0,0,0-.28-.18l-.21-.13-.2-.07c-.14-.06-.3-.1-.45-.15l-.19-.05a4,4,0,0,0-2.53.24,4.39,4.39,0,0,0-1.91,1.89,345.45,345.45,0,0,0-23.17,51.37c-.82,2.4-2.17,6.34-3.91,11.25A74.63,74.63,0,0,0,485.8,185a32.22,32.22,0,0,0-.27,5.26,22.64,22.64,0,0,0,.18,2.41,12.05,12.05,0,0,0,5,7.76,12.55,12.55,0,0,0,7.58,2.14c2.2-.06,5.24-.69,9.27-3.66,10-7.35,24-27.46,25.24-29.24Q521.5,192.07,510.36,216q-17,36.6-31.09,71.37A4.28,4.28,0,1,0,486.8,291c13.39-34.6,29.27-71.45,48.19-109.87,3.4-6.9,7.14-14.6,15.12-29.76,11.74-22.32,21.12-37.81,29.33-51.56v-.06A4.3,4.3,0,0,0,579.7,96Z"/><path class="cls-1" d="M863.38,116.57s-.15-.47-.17-.52,0,0,0,0a.05.05,0,0,0,0,0,3.62,3.62,0,0,0-.42-.74c-.06-.08-.14-.14-.2-.21A4.91,4.91,0,0,0,858,114a4.21,4.21,0,0,0-2,1.42c-5.47,5.64-19.57,20.14-32.78,32.82-4.73,4.53-13.63,13-23.11,21.76l-2.34,2.18s-23.67,22-31.52,21.94h-.63a6.15,6.15,0,0,1-3.68-1.34,6.62,6.62,0,0,1-2-3.34c-.23-.77-.74-2.8.33-8.38.16-.78.57-2.44,1.35-5.45,4.69-2.05,8.66-4,11.88-5.76,6.52-3.5,28.79-16,46.42-39.27,3.09-4.09,8.2-11.35,9.61-21.47.5-3.6,1.39-11.07-2.88-16.76a15.16,15.16,0,0,0-5.5-4.51,15.6,15.6,0,0,0-7.94-1.24,24.73,24.73,0,0,0-12.84,4.94c-9.22,6.47-15,15-17.66,19a231.83,231.83,0,0,0-21.6,40.85,190.91,190.91,0,0,0-5.94,18.38c-3.4,1.4-7.08,2.77-11,4.06a3.35,3.35,0,0,0-.87.26,3.87,3.87,0,0,0-2.17,2.42h0a4.72,4.72,0,0,0-.15.65c0,.12,0,.23,0,.35s0,.23,0,.35a3.57,3.57,0,0,0,.07.56,1,1,0,0,0,0,.17c0,.08,0,.16,0,.25a3.69,3.69,0,0,0,.17.42s0,0,0,0l0,0a3.56,3.56,0,0,0,.34.6l.07.12c.11.14.23.27.35.4l.21.21c.09.08.18.14.27.21a4.56,4.56,0,0,0,.39.27l.17.08a5.38,5.38,0,0,0,.55.24l.09,0a4.83,4.83,0,0,0,.66.14h.07a4.07,4.07,0,0,0,.7,0h.09a4.23,4.23,0,0,0,.68-.12h0c2.44-.78,4.76-1.6,7-2.42-1,4.79-1.54,9.43-.47,14.12a10.44,10.44,0,0,0,2.38,5,9.35,9.35,0,0,0,3.2,2.25,13.48,13.48,0,0,0,7.1,1.08c8.16-.75,18.87-8.93,22.18-11.5,9.23-7.15,12.88-10.52,12.88-10.52,23.63-21.6,29.22-27.06,29.22-27.06q8.82-8.67,17.81-17.39,7.35-7.14,14.69-14.17a4.33,4.33,0,0,0,1.45-2.06A4.19,4.19,0,0,0,863.38,116.57Zm-97.57,44.35c.93-2.7,1.93-5.24,3.47-8.7a335.49,335.49,0,0,1,18.11-34.46,99.86,99.86,0,0,1,6.91-10.14,48.32,48.32,0,0,1,12-11.35c3.39-2.2,5.81-3.07,8.42-2.81a8.33,8.33,0,0,1,4.93,2.08c2.34,2.26,2.32,5.58,2.25,8.93a30.84,30.84,0,0,1-3.16,12.8,109,109,0,0,1-7.2,11c-13.83,18.54-30.28,28.07-39.51,33.3-2.26,1.28-4.83,2.65-7.7,4.07C764.73,164.2,765.24,162.58,765.81,160.92Z"/><path class="cls-1" d="M955.05,123.12a3.69,3.69,0,0,0-.53-.85l-.1-.12a3.93,3.93,0,0,0-4.59-1.07,4.23,4.23,0,0,0-.84.5,7.14,7.14,0,0,0-1.52,1.44q-14.09,16.59-28.63,33.35T890,189.25h0c-1.85,2-2.8,3.07-3.78,3.59a4.51,4.51,0,0,1-2.25.63,4.4,4.4,0,0,1-2.94-1.26A4.79,4.79,0,0,1,880,190c-.36-1.89.68-6.31,2.83-12l.07-.06c1.53-3.16,4.28-8.69,8-15.41,6.15-11.09,18.48-31.71,26.85-50.56,1.54-3.47,4.62-10.68,1.86-17.63a16.09,16.09,0,0,0-3.21-5,13.18,13.18,0,0,0-7.11-2.79,17.85,17.85,0,0,0-9.39,1.78,49.46,49.46,0,0,0-14.47,9.65c-13.61,13.54-27.15,29-29.71,32q8.82-15.18,17.66-30.36c.06-.09.11-.19.16-.28s.11-.18.16-.28l0,0a3.95,3.95,0,0,0-5.17-5.29,3.88,3.88,0,0,0-1.65,1.36,4.56,4.56,0,0,0-.58.77c-2.8,4.54-.75,1.13-5.73,9.76-18.24,31.57-15.93,29.76-23.15,42.49-8.53,15-18.85,33-27.37,46.84a4.2,4.2,0,0,0,1,6.14,4.16,4.16,0,0,0,5.4-1.63c4.84-7.72,13.66-22.43,22.39-35.93,2.59-4,4.09-6.32,5.28-8.13,2.76-4.19,3.16-4.82,3.65-5.52a82.84,82.84,0,0,1,6.93-8.54c8-8.47,14.16-15.51,18.28-20.31,2.92-3.39,8.38-8.78,19.3-19.55.31-.3,7.12-6.89,14-7.36,1.08-.08,3.38-.2,4.83,1.27a5.55,5.55,0,0,1,1.27,4.06c0,4.52-1.42,8.86-4.83,15.49-1.16,2.26-2.07,3.88-3,5.58-5.58,9.82-8.36,14.73-8.61,15.15-3.09,5.29-8.53,15.43-18.81,36.39a6.61,6.61,0,0,0-.7,1.61,46.52,46.52,0,0,0-2.64,7.77c-.72,3.07-2.16,9.47.13,14.68a9,9,0,0,0,1.85,2.81,9.58,9.58,0,0,0,5.56,2.63,10.65,10.65,0,0,0,5-.57,13.72,13.72,0,0,0,5.19-3.26c7.17-7.08,62.07-69.44,62.62-70l0,0,.2-.23A4,4,0,0,0,955.05,123.12Z"/><path class="cls-1" d="M1015,90.27a4,4,0,0,0-5.19,1.7c-2.9,4.88-6.68,11.21-11.17,18.64.06-.52.12-1,.16-1.62.42-5.63.88-11.78-2.89-16.8a15.08,15.08,0,0,0-5.52-4.52,15.66,15.66,0,0,0-8-1.24c-5.83.33-10,3.06-12.86,4.95a42,42,0,0,0-7.3,6.38,76.58,76.58,0,0,0-9.94,13c-6.2,10.16-14.73,24.13-21.7,40.94a165.51,165.51,0,0,0-6,17c-.73,2.49-1.27,4.58-1.63,6a78.14,78.14,0,0,0-1.47,8.15c-.79,6.26-.35,8.92,0,10.44a10.56,10.56,0,0,0,2.38,5.06,9,9,0,0,0,3.21,2.26c.74.29,3.09,1.11,7.05,0,3.61-1,6.12-2.9,9.37-5.74a128.11,128.11,0,0,0,9.87-9.51c8.65-9.55,11.9-13.57,11.9-13.57,1.25-1.48,2.66-3.17,4.17-5q-11.68,23.52-23.2,48.47Q929.35,251.94,915,286.9a4.3,4.3,0,1,0,7.55,3.63c13.43-34.7,29.37-71.66,48.34-110.2,14.86-30.17,30.07-58.22,45.18-84.15A4.06,4.06,0,0,0,1015,90.27Zm-23.88,14.11a28.88,28.88,0,0,1-.63,5.44,28.16,28.16,0,0,1-2.53,7.39c-1.87,3.6-5.27,7.93-7.77,11.12a5.59,5.59,0,0,0-1.16,2.41,5.78,5.78,0,0,0-.06,1.46,4,4,0,0,0,4.36,3.35c-.88,1.39-1.95,3.09-3.55,5.66-4.15,5.58-14.88,19.74-27,33.8-.19.22-1.72,1.83-3.75,4.09-1.67,1.88-2.19,2.52-3.75,4.3h0c-4.48,5-6.65,7.48-9.51,9.37a6,6,0,0,1-3.27,1.12,4.59,4.59,0,0,1-1.79-.33,5.18,5.18,0,0,1-2-1.71c-1.68-2.45-.32-8.94.14-11,.81-3.74,1.47-6.79,2.77-11,.21-.67,1.33-4.25,3-8.63,1.11-2.85,2.34-5.74,3.75-8.92,0,0,8.93-20,18.16-34.54,1.25-2,2.49-3.83,2.49-3.83,1.69-2.51,3.2-4.65,4.43-6.32a47.22,47.22,0,0,1,12-11.39c3.39-2.2,5.82-3.07,8.43-2.8a8.22,8.22,0,0,1,4.94,2.08C991.18,97.7,991.16,101,991.09,104.38Z"/><path class="cls-1" d="M1149,34.82a4,4,0,0,0-5.22-2,3.92,3.92,0,0,0-1.84,1.68h0c-30.3,54.72-51.67,96.35-59.62,113.33-7.7,16.43-13.7,31.33-13.7,31.33-3.49,8.67-6.81,17.73-6.81,17.73s-.11.29-.14.39a4,4,0,0,0-.14,1.37,4.6,4.6,0,0,0,.32,1.32,3.94,3.94,0,0,0,7.14.21c.06-.14.14-.31.22-.47,6.48-14.3,8.64-20.63,16.16-37.71,0-.09.3-.66.51-1.14,6-13.63,12.61-27.08,23.55-48.84,13.41-26.69,20.39-40.18,26.27-50.78,5.34-9.63,9.92-17.51,13.1-22.88a4,4,0,0,0,.5-2.57A4.14,4.14,0,0,0,1149,34.82Z"/></svg>