<?xml version="1.0" encoding="utf-8"?>
<!-- Generator: Adobe Illustrator 27.4.0, SVG Export Plug-In . SVG Version: 6.00 Build 0)  -->
<svg version="1.1" id="Layer_1" xmlns="http://www.w3.org/2000/svg" xmlns:xlink="http://www.w3.org/1999/xlink" x="0px" y="0px"
	 viewBox="0 0 448 452" style="enable-background:new 0 0 448 452;" xml:space="preserve">
<style type="text/css">
	.st0{fill:#FFFFFF;}
</style>
<path class="st0" d="M64,79c-14.5,0-26.2,11.7-26.2,26.2c0,14.5,11.7,26.2,26.2,26.2h322.9c14.5,0,26.2-11.7,26.2-26.2
	S401.3,79,386.9,79L64,79z M64,201.1c-14.5,0-26.2,11.7-26.2,26.2c0,14.5,11.7,26.2,26.2,26.2h322.9c14.5,0,26.2-11.7,26.2-26.2
	c0-14.5-11.7-26.2-26.2-26.2L64,201.1z M64,323.3c-14.5,0-26.2,11.7-26.2,26.2c0,14.5,11.7,26.2,26.2,26.2h322.9
	c14.5,0,26.2-11.7,26.2-26.2s-11.7-26.2-26.2-26.2H64z"/>
</svg>
