<?xml version="1.0" encoding="utf-8"?>
<!-- Generator: Adobe Illustrator 27.4.0, SVG Export Plug-In . SVG Version: 6.00 Build 0)  -->
<svg version="1.1" id="Layer_1" xmlns="http://www.w3.org/2000/svg" xmlns:xlink="http://www.w3.org/1999/xlink" x="0px" y="0px"
	 viewBox="0 0 448 452" style="enable-background:new 0 0 448 452;" xml:space="preserve">
<style type="text/css">
	.st0{fill:#003CFE;}
</style>
<path class="st0" d="M411.8,173.3c-0.2-25.4-8.8-50.3-25-70.1c5.4-22.6,3.7-46.4-4.8-68.2c-1.7-4.1-5.1-7.3-9.5-8.7
	c-6-2-29.2-6-76.1,24.3c-20.2-5.3-41-7.9-62-7.5c-20.9-0.3-41.8,2.2-62,7.5c-48.2-30.9-73.3-26-78.3-24.4c-4.3,1.4-7.8,4.7-9.5,8.8
	c-8.7,21.6-10.4,45.4-5,68C63.3,122.9,54.4,148,55,173.7c0,96.1,55,125.2,105.4,135.4c-2.6,6.4-4.3,12.9-5.3,19.7
	c-0.2,0.8-0.2,1.4,0,2.2v26.5c-46,3.9-55.7-23-56.6-26.1c-0.2-0.8-0.5-1.4-0.8-2c-8.8-18-24.5-32-43.5-38.7
	c-7.9-2.6-16.6,1.7-19.3,9.6c-2.7,7.9,1.7,16.6,9.6,19.3c10.6,3.7,19.3,11.4,24.7,21.1c6,19.7,30.9,51,85.7,47.5v25.1
	c-0.1,0.6-0.9,7,4.1,11.7c4.6,4.3,10.5,3.6,11.2,3.5c43,0.1,86.1,0.2,129.1,0.3c0.6,0.1,7.5,0.7,12.1-4.7c3.8-4.4,3.2-9.6,3.2-10.6
	c0-23,0-46.1,0-69.1c0.2-12.1-2-24.1-6.5-35.4C348.8,300.3,411.8,273.5,411.8,173.3z"/>
</svg>
